<svg xmlns="http://www.w3.org/2000/svg"  viewBox="0 0 512 512" width="64px" height="64px"><path fill="#F5871E" d="M456,72c0-30.582-24.514-55.439-54.965-55.991c-30.654-0.556-56.383,24.143-57.023,54.795 c-0.355,17.031,6.901,32.368,18.594,42.864c3.408,3.059,5.394,7.392,5.394,11.971V144h64v-18.362 c0-4.569,1.972-8.901,5.373-11.951C448.804,103.437,456,88.562,456,72z"/><path fill="#B9AF9B" d="M416,176h-32c-8.837,0-16-7.163-16-16v-16h64v16C432,168.837,424.837,176,416,176z"/><path fill="#F0E1CD" d="M400,176h-16c-8.837,0-16-7.163-16-16v-16h32V176z"/><path fill="#B9AF9B" d="M400,192L400,192c-8.837,0-16-7.163-16-16v0h32v0C416,184.837,408.837,192,400,192z"/><path fill="#FABE19" d="M400,40V16.017c-30.194,0.013-55.355,24.482-55.988,54.788c-0.008,0.401,0.008,0.796,0.008,1.196H368 C385.673,72,400,57.673,400,40z"/><path fill="#FABE19" d="M488,80h-8c-4.418,0-8-3.582-8-8s3.582-8,8-8h8c4.418,0,8,3.582,8,8S492.418,80,488,80z"/><path fill="#FABE19" d="M472,48c-2.048,0-4.095-0.781-5.657-2.343c-3.124-3.125-3.124-8.189,0-11.314l8-8 c3.125-3.123,8.189-3.123,11.314,0c3.124,3.125,3.124,8.189,0,11.314l-8,8C476.095,47.219,474.048,48,472,48z"/><path fill="#FABE19" d="M480,120c-2.048,0-4.095-0.781-5.657-2.343l-8-8c-3.124-3.125-3.124-8.189,0-11.314 c3.125-3.123,8.189-3.123,11.314,0l8,8c3.124,3.125,3.124,8.189,0,11.314C484.095,119.219,482.048,120,480,120z"/><path fill="#FABE19" d="M320,80h-8c-4.418,0-8-3.582-8-8s3.582-8,8-8h8c4.418,0,8,3.582,8,8S324.418,80,320,80z"/><path fill="#FABE19" d="M328,48c-2.048,0-4.095-0.781-5.657-2.343l-8-8c-3.124-3.125-3.124-8.189,0-11.314 c3.125-3.123,8.189-3.123,11.314,0l8,8c3.124,3.125,3.124,8.189,0,11.314C332.095,47.219,330.048,48,328,48z"/><path fill="#FABE19" d="M320,120c-2.048,0-4.095-0.781-5.657-2.343c-3.124-3.125-3.124-8.189,0-11.314l8-8 c3.125-3.123,8.189-3.123,11.314,0c3.124,3.125,3.124,8.189,0,11.314l-8,8C324.095,119.219,322.048,120,320,120z"/><g><path fill="#FAB991" d="M208,48h-32c-53.019,0-96,42.981-96,96v176h112v-32h64c26.51,0,48-21.49,48-48v-96 C304,90.981,261.019,48,208,48z"/><path fill="#F0915A" d="M96,288h96v32H80v-48v0C80,280.837,87.163,288,96,288z"/><path fill="#F0E1CD" d="M128,272H80c-8.837,0-16-7.163-16-16V144c0-8.837,7.163-16,16-16h80v112C160,257.673,145.673,272,128,272 z"/><path fill="#FABE19" d="M280,320H80c-26.51,0-48,21.49-48,48v128h296V368C328,341.49,306.51,320,280,320z"/><path fill="#FAB991" d="M80,320L80,320c-26.51,0-48,21.49-48,48v128h96V368C128,341.49,106.51,320,80,320z"/><path fill="#F0915A" d="M80,320L80,320c26.51,0,48,21.49,48,48v48h104c13.255,0,24-10.745,24-24v-24c0-26.51-21.49-48-48-48H80z"/><path fill="#F0915A" d="M160,160v80c-22.091,0-40-17.909-40-40C120,177.909,137.909,160,160,160z"/><path fill="#F0E1CD" d="M160,128v160c0,26.51,21.49,48,48,48h48c26.51,0,48-21.49,48-48v-64c0-8.837-7.163-16-16-16h-56 c-8.837,0-16,7.163-16,16v0h-8c-8.837,0-16-7.163-16-16v-64c0-8.837-7.163-16-16-16H160z"/><path fill="#F0915A" d="M272,240h-24c-4.418,0-8,3.582-8,8v0c0,4.418,3.582,8,8,8h24c4.418,0,8-3.582,8-8v0 C280,243.582,276.418,240,272,240z"/><path fill="#F0915A" d="M264,224L264,224c-8.837,0-16-7.163-16-16v-32h0c17.673,0,32,14.327,32,32v0 C280,216.837,272.837,224,264,224z"/><circle cx="228" cy="160" r="12" fill="#463C4B"/><g><circle cx="268" cy="160" r="12" fill="#463C4B"/></g></g><g><path fill="#F0915A" d="M384,384v-68c0-6.627-5.373-12-12-12s-12,5.373-12,12v68v64v48h66.667v-48c8.837,0,16-7.163,16-16v-48H384 z"/></g><g><path fill="#FAB991" d="M396,362.667L396,362.667c-6.627,0-12,5.373-12,12v18.667c0,6.627,5.373,12,12,12l0,0 c6.627,0,12-5.373,12-12v-18.667C408,368.039,402.627,362.667,396,362.667z"/></g><g><path fill="#FAB991" d="M420,362.667L420,362.667c-6.627,0-12,5.373-12,12v18.667c0,6.627,5.373,12,12,12l0,0 c6.627,0,12-5.373,12-12v-18.667C432,368.039,426.627,362.667,420,362.667z"/></g><g><path fill="#FAB991" d="M444,370.667L444,370.667c-6.627,0-12,5.373-12,12v10.667c0,6.627,5.373,12,12,12l0,0 c6.627,0,12-5.373,12-12v-10.667C456,376.039,450.627,370.667,444,370.667z"/></g><g><path fill="#FAB991" d="M360,368L360,368c8.837,0,16,7.163,16,16v40h8c13.255,0,24,10.745,24,24v0h-48c-4.418,0-8-3.582-8-8v-64 C352,371.582,355.582,368,360,368z"/></g></svg>