<svg xmlns="http://www.w3.org/2000/svg" width="24" height="24" fill="none" viewBox="0 0 24 24" id="to-do-list">
  <path fill="#000" fill-rule="evenodd" d="M7 2.25C4.37665 2.25 2.25 4.37665 2.25 7V17C2.25 19.6234 4.37665 21.75 7 21.75H17C19.6234 21.75 21.75 19.6234 21.75 17V7C21.75 4.37665 19.6234 2.25 17 2.25H7ZM10.5303 9.96967C10.8232 10.2626 10.8232 10.7374 10.5303 11.0303L8.53033 13.0303C8.23744 13.3232 7.76256 13.3232 7.46967 13.0303L6.46967 12.0303C6.17678 11.7374 6.17678 11.2626 6.46967 10.9697C6.76256 10.6768 7.23744 10.6768 7.53033 10.9697L8 11.4393L9.46967 9.96967C9.76256 9.67678 10.2374 9.67678 10.5303 9.96967ZM10.5303 6.53033C10.8232 6.23744 10.8232 5.76256 10.5303 5.46967C10.2374 5.17678 9.76256 5.17678 9.46967 5.46967L8 6.93934L7.53033 6.46967C7.23744 6.17678 6.76256 6.17678 6.46967 6.46967C6.17678 6.76256 6.17678 7.23744 6.46967 7.53033L7.46967 8.53033C7.76256 8.82322 8.23744 8.82322 8.53033 8.53033L10.5303 6.53033ZM12.25 11.5C12.25 11.0858 12.5858 10.75 13 10.75H17C17.4142 10.75 17.75 11.0858 17.75 11.5C17.75 11.9142 17.4142 12.25 17 12.25H13C12.5858 12.25 12.25 11.9142 12.25 11.5ZM13 6.25C12.5858 6.25 12.25 6.58579 12.25 7C12.25 7.41421 12.5858 7.75 13 7.75H17C17.4142 7.75 17.75 7.41421 17.75 7C17.75 6.58579 17.4142 6.25 17 6.25H13ZM12.25 16C12.25 15.5858 12.5858 15.25 13 15.25H17C17.4142 15.25 17.75 15.5858 17.75 16C17.75 16.4142 17.4142 16.75 17 16.75H13C12.5858 16.75 12.25 16.4142 12.25 16ZM6.25 15C6.25 14.5858 6.58579 14.25 7 14.25H10C10.4142 14.25 10.75 14.5858 10.75 15V18C10.75 18.4142 10.4142 18.75 10 18.75H7C6.58579 18.75 6.25 18.4142 6.25 18V15Z" clip-rule="evenodd"></path>
</svg>
